<svg xmlns:xlink="http://www.w3.org/1999/xlink" xmlns="http://www.w3.org/2000/svg" width="20" height="20" viewBox="0 0 16 18"><g fill="none" fillrule="evenodd"><path d="M-4-3h24v24H-4z" fill="none"></path><g fill="#3E4152"><path d="M3.23 1.3c-.788 0-1.43.61-1.43 1.359V15.34c0 .75.642 1.359 1.43 1.359h9.54c.788 0 1.43-.61 1.43-1.359V2.66c0-.75-.642-1.359-1.43-1.359H3.23zM13 18H3C1.621 18 .5 16.937.5 15.632V2.368C.5 1.063 1.621 0 3 0h10c1.379 0 2.5 1.063 2.5 2.368v13.264C15.5 16.937 14.379 18 13 18z" fill="#3E4152"></path><path d="M10.25 8.25h-1.5v-1.5a.75.75 0 00-1.5 0v1.5h-1.5a.75.75 0 000 1.5h1.5v1.5a.75.75 0 001.5 0v-1.5h1.5a.75.75 0 000-1.5" fill="#3E4152"></path></g></g></svg>