<svg xmlns:xlink="http://www.w3.org/1999/xlink" xmlns="http://www.w3.org/2000/svg" width="10" height="10" viewBox="0 0 9 10" class="strike-rupees"><g fill="#282C3F"><path d="M1.951 5.845l3.91 3.602-.902.376L.7 5.845l.452-.711c.186-.005.392-.02.615-.048a5.2 5.2 0 001.347-.356c.218-.09.42-.201.604-.331.185-.13.345-.281.479-.455.134-.173.231-.371.29-.594H.865v-.841h3.644a1.759 1.759 0 00-.284-.667 1.826 1.826 0 00-.567-.512 2.964 2.964 0 00-.865-.332A5.22 5.22 0 001.63.882H.864V0h6.2v.882H4.18c.173.077.33.174.468.29a2.09 2.09 0 01.612.848c.064.162.11.325.137.489h1.668v.84H5.383a2.38 2.38 0 01-.43 1.03 3.095 3.095 0 01-.8.748 4.076 4.076 0 01-1.043.482 6.15 6.15 0 01-1.159.236z" fill="#282C3F"></path><path d="M0 6.104v-.792h8.14v.792z" fill="#282C3F"></path></g></svg>