<svg xmlns:xlink="http://www.w3.org/1999/xlink" xmlns="http://www.w3.org/2000/svg" width="24" height="24" viewBox="0 0 24 24" class="result-icon"><g fill="none" fill-rule="evenodd"><path d="M0 0h24v24H0z" opacity="0.05" fill="none"></path><path fill="#282C3F" d="M3.749 7.508a.75.75 0 010-1.5h3.138a2.247 2.247 0 014.243 0h9.121a.75.75 0 010 1.5h-9.126a2.248 2.248 0 01-4.232 0H3.749zm13.373 9h3.129a.75.75 0 010 1.5h-3.135a2.247 2.247 0 01-4.231 0H3.749a.75.75 0 010-1.5h9.13a2.248 2.248 0 014.243 0z"></path></g></svg>